<?xml version="1.0" encoding="UTF-8" standalone="no"?>
<!-- Created with Inkscape (http://www.inkscape.org/) -->

<svg
   xmlns:dc="http://purl.org/dc/elements/1.1/"
   xmlns:cc="http://creativecommons.org/ns#"
   xmlns:rdf="http://www.w3.org/1999/02/22-rdf-syntax-ns#"
   xmlns:svg="http://www.w3.org/2000/svg"
   xmlns="http://www.w3.org/2000/svg"
   xmlns:sodipodi="http://sodipodi.sourceforge.net/DTD/sodipodi-0.dtd"
   xmlns:inkscape="http://www.inkscape.org/namespaces/inkscape"
   width="50.549473mm"
   height="67.73333mm"
   viewBox="0 0 50.549473 67.733332"
   version="1.1"
   id="svg4528"
   inkscape:version="0.92.2 (5c3e80d, 2017-08-06)"
   sodipodi:docname="logo-text-v.svg">
  <defs
     id="defs4522" />
  <sodipodi:namedview
     id="base"
     pagecolor="#ffffff"
     bordercolor="#666666"
     borderopacity="1.0"
     inkscape:pageopacity="0.0"
     inkscape:pageshadow="2"
     inkscape:zoom="0.98994949"
     inkscape:cx="-62.802461"
     inkscape:cy="69.439249"
     inkscape:document-units="mm"
     inkscape:current-layer="text5210"
     showgrid="false"
     fit-margin-top="0"
     fit-margin-left="0"
     fit-margin-right="0"
     fit-margin-bottom="0"
     inkscape:window-width="1920"
     inkscape:window-height="1017"
     inkscape:window-x="3832"
     inkscape:window-y="-8"
     inkscape:window-maximized="1" />
  <metadata
     id="metadata4525">
    <rdf:RDF>
      <cc:Work
         rdf:about="">
        <dc:format>image/svg+xml</dc:format>
        <dc:type
           rdf:resource="http://purl.org/dc/dcmitype/StillImage" />
        <dc:title></dc:title>
      </cc:Work>
    </rdf:RDF>
  </metadata>
  <g
     inkscape:label="Layer 1"
     inkscape:groupmode="layer"
     id="layer1"
     transform="translate(-66.26711,-73.358477)">
    <g
       aria-label="Pyrrho"
       style="font-style:normal;font-variant:normal;font-weight:normal;font-stretch:normal;font-size:22.76620865px;line-height:1.25;font-family:'Courier New';-inkscape-font-specification:'Courier New';letter-spacing:0px;word-spacing:0px;fill:#000000;fill-opacity:1;stroke:none;stroke-width:0.56915522"
       id="text5210">
      <g
         id="g5832"
         transform="matrix(0.64331036,0,0,0.64331036,23.636792,50.325987)">
        <g
           transform="translate(71.093694,19.510676)"
           id="g5206">
          <path
             inkscape:connector-curvature="0"
             style="opacity:1;vector-effect:none;fill:#784421;fill-opacity:1;stroke:none;stroke-width:0.79374999;stroke-linecap:butt;stroke-linejoin:miter;stroke-miterlimit:4;stroke-dasharray:none;stroke-dashoffset:0;stroke-opacity:1"
             d="m 34.461973,16.2924 a 39.288624,39.288624 0 0 0 -0.441317,0.0155 c -0.07399,0.649116 -0.480806,1.345875 -1.225764,2.09083 l -3.683498,3.682979 38.849827,38.849824 3.682978,-3.683495 c 0.742381,-0.742381 1.436913,-1.149199 2.08411,-1.225248 A 39.288624,39.288624 0 0 0 73.750529,55.580959 39.288624,39.288624 0 0 0 34.461971,16.2924 Z"
             id="path5143" />
          <path
             inkscape:connector-curvature="0"
             style="opacity:1;vector-effect:none;fill:#502d16;fill-opacity:1;stroke:none;stroke-width:0.79374999;stroke-linecap:butt;stroke-linejoin:miter;stroke-miterlimit:4;stroke-dasharray:none;stroke-dashoffset:0;stroke-opacity:1"
             d="M 27.819484,16.859807 A 39.288624,39.288624 0 0 0 -4.2121506,48.891443 Z"
             id="path5141" />
          <path
             inkscape:connector-curvature="0"
             style="opacity:1;vector-effect:none;fill:#a05a2c;fill-opacity:1;stroke:none;stroke-width:0.79374999;stroke-linecap:butt;stroke-linejoin:miter;stroke-miterlimit:4;stroke-dasharray:none;stroke-dashoffset:0;stroke-opacity:1"
             d="M 25.815991,25.377634 4.2198926,46.973733 43.0692,85.823555 47.450845,81.441913 c 1.447501,-1.447501 2.713638,-1.628217 3.79925,-0.542604 1.085615,1.085614 0.904899,2.35227 -0.542602,3.799768 l -9.603031,9.603031 A 39.288624,39.288624 0 0 0 73.136097,62.270473 l -9.556522,9.556006 c -1.447501,1.447498 -2.713638,1.628217 -3.79925,0.542602 -1.085614,-1.085614 -0.904899,-2.351751 0.542602,-3.799252 l 4.342371,-4.342368 z"
             id="path5139" />
          <path
             inkscape:connector-curvature="0"
             style="opacity:1;vector-effect:none;fill:#c87137;fill-opacity:1;stroke:none;stroke-width:0.79374999;stroke-linecap:butt;stroke-linejoin:miter;stroke-miterlimit:4;stroke-dasharray:none;stroke-dashoffset:0;stroke-opacity:1"
             d="m 0.96272631,50.230381 -3.68297881,3.683497 c -0.7424049,0.742405 -1.4368991,1.149189 -2.0841096,1.225249 a 39.288624,39.288624 0 0 0 -0.022222,0.441833 39.288624,39.288624 0 0 0 39.2885571,39.288558 39.288624,39.288624 0 0 0 0.441317,-0.01551 c 0.07412,-0.649012 0.480933,-1.345478 1.225765,-2.090311 l 3.683497,-3.683495 z"
             id="path5131" />
          <g
             aria-label="*"
             style="font-style:normal;font-variant:normal;font-weight:normal;font-stretch:normal;font-size:10.58333302px;line-height:1.25;font-family:'Courier New';-inkscape-font-specification:'Courier New';letter-spacing:0px;word-spacing:0px;fill:#28170b;fill-opacity:1;stroke:none;stroke-width:0.26458332"
             id="text5184"
             transform="matrix(5.4388888,0,0,5.4388888,-152.97285,-246.71771)">
            <path
               d="m 34.242352,55.456939 v -1.483114 q 0,-0.160197 0.06201,-0.227376 0.06201,-0.06718 0.160197,-0.06718 0.09302,0 0.155029,0.06718 0.06201,0.06718 0.06201,0.227376 v 1.483114 l 1.410766,-0.459921 q 0.09819,-0.03101 0.149862,-0.03101 0.08268,0 0.144694,0.06718 0.06201,0.06201 0.06201,0.149861 0,0.07751 -0.04651,0.134359 -0.04134,0.05684 -0.1757,0.09819 l -1.410767,0.459921 0.873332,1.198893 q 0.08268,0.118856 0.08268,0.186035 0,0.09302 -0.06718,0.160197 -0.06201,0.06201 -0.149862,0.06201 -0.113688,0 -0.222208,-0.149862 l -0.873332,-1.204061 -0.873332,1.204061 q -0.10852,0.149862 -0.217041,0.149862 -0.09302,0 -0.160197,-0.06201 -0.06201,-0.06718 -0.06201,-0.160197 0,-0.06718 0.08785,-0.186035 l 0.873331,-1.198893 -1.415934,-0.465088 q -0.129191,-0.04134 -0.1757,-0.09302 -0.04134,-0.05684 -0.04134,-0.134359 0,-0.08785 0.06201,-0.149861 0.06201,-0.06718 0.139526,-0.06718 0.05684,0 0.15503,0.03101 z"
               style="fill:#28170b;stroke-width:0.26458332"
               id="path5186"
               inkscape:connector-curvature="0" />
          </g>
        </g>
        <path
           inkscape:connector-curvature="0"
           id="path5212"
           style="font-style:normal;font-variant:normal;font-weight:normal;font-stretch:normal;font-family:Monofur;-inkscape-font-specification:Monofur;fill:#502d16;fill-opacity:1;stroke-width:0.56915522"
           d="m 81.603721,126.86293 q 0,1.76439 -1.252142,3.01653 -1.252141,1.25214 -3.016523,1.25214 h -3.320072 v 4.98011 q 0,0.71144 -0.711444,0.71144 -0.711444,0 -0.711444,-0.71144 v -12.806 q 0,-0.28457 0.208691,-0.49326 0.218176,-0.21818 0.502753,-0.21818 h 4.031516 q 1.764382,0 3.016523,1.25214 1.252142,1.25214 1.252142,3.01652 z m -1.422888,0 q 0,-1.17625 -0.834761,-2.01101 -0.834761,-0.83476 -2.011016,-0.83476 h -3.320072 v 5.69155 h 3.320072 q 1.176255,0 2.011016,-0.83476 0.834761,-0.83476 0.834761,-2.01102 z" />
        <path
           inkscape:connector-curvature="0"
           id="path5214"
           style="font-style:normal;font-variant:normal;font-weight:normal;font-stretch:normal;font-family:Monofur;-inkscape-font-specification:Monofur;fill:#1a1a1a;stroke-width:0.56915522"
           d="m 92.038233,127.57438 v 9.24877 q 0,1.76438 -1.252142,3.01652 -1.252141,1.25214 -3.016522,1.25214 -1.119339,0 -2.124846,-0.56915 -1.043452,-0.58813 -1.565177,-1.54621 -0.104345,-0.20869 -0.104345,-0.37943 0,-0.28458 0.227662,-0.49327 0.227662,-0.20869 0.512239,-0.20869 0.322522,0 0.597613,0.36046 1.062423,1.41341 2.456854,1.41341 1.176254,0 2.011015,-0.83476 0.834761,-0.83477 0.834761,-2.01102 v -1.09088 q -1.214198,1.09088 -2.845776,1.09088 -1.764381,0 -3.016523,-1.25214 -1.252141,-1.25214 -1.252141,-3.01652 v -4.98011 q 0,-0.71145 0.711444,-0.71145 0.711444,0 0.711444,0.71145 v 4.98011 q 0,1.17625 0.834761,2.01101 0.834761,0.83476 2.011015,0.83476 1.176254,0 2.011015,-0.83476 0.834761,-0.83476 0.834761,-2.00153 v -4.98959 q 0,-0.71145 0.711444,-0.71145 0.711444,0 0.711444,0.71145 z" />
        <path
           inkscape:connector-curvature="0"
           id="path5216"
           style="font-style:normal;font-variant:normal;font-weight:normal;font-stretch:normal;font-family:Monofur;-inkscape-font-specification:Monofur;fill:#1a1a1a;stroke-width:0.56915522"
           d="m 104.37942,129.15853 q 0,0.29406 -0.22767,0.51224 -0.21817,0.20869 -0.51224,0.20869 -0.2656,0 -0.53121,-0.27509 -1.30906,-1.31855 -2.76989,-1.31855 -1.470315,0 -2.513766,1.04345 -1.043451,1.04345 -1.043451,2.51377 v 4.26867 q 0,0.71144 -0.711444,0.71144 -0.711444,0 -0.711444,-0.71144 v -8.53733 q 0,-0.71145 0.711444,-0.71145 0.550183,0 0.682986,0.53122 0.03794,0.17074 0.02846,0.96756 1.460832,-1.49878 3.557215,-1.49878 1.0814,0 2.15331,0.49327 1.12882,0.51224 1.71695,1.35649 0.17075,0.24663 0.17075,0.44584 z" />
        <path
           inkscape:connector-curvature="0"
           id="path5218"
           style="font-style:normal;font-variant:normal;font-weight:normal;font-stretch:normal;font-family:Monofur;-inkscape-font-specification:Monofur;fill:#1a1a1a;stroke-width:0.56915522"
           d="m 115.76252,129.15853 q 0,0.29406 -0.22766,0.51224 -0.21818,0.20869 -0.51224,0.20869 -0.26561,0 -0.53121,-0.27509 -1.30906,-1.31855 -2.76989,-1.31855 -1.47032,0 -2.51377,1.04345 -1.04345,1.04345 -1.04345,2.51377 v 4.26867 q 0,0.71144 -0.71144,0.71144 -0.71145,0 -0.71145,-0.71144 v -8.53733 q 0,-0.71145 0.71145,-0.71145 0.55018,0 0.68298,0.53122 0.0379,0.17074 0.0285,0.96756 1.46083,-1.49878 3.55722,-1.49878 1.08139,0 2.1533,0.49327 1.12883,0.51224 1.71695,1.35649 0.17075,0.24663 0.17075,0.44584 z" />
        <path
           inkscape:connector-curvature="0"
           id="path5220"
           style="font-style:normal;font-variant:normal;font-weight:normal;font-stretch:normal;font-family:Monofur;-inkscape-font-specification:Monofur;fill:#1a1a1a;stroke-width:0.56915522"
           d="m 126.66184,136.11171 q 0,0.71144 -0.71144,0.71144 -0.71145,0 -0.71145,-0.71144 v -4.98011 q 0,-1.17626 -0.83476,-2.01102 -0.83476,-0.83476 -2.01101,-0.83476 -1.17626,0 -2.01102,0.83476 -0.83476,0.83476 -0.83476,2.01102 v 4.98011 q 0,0.71144 -0.71144,0.71144 -0.71145,0 -0.71145,-0.71144 v -12.806 q 0,-0.71144 0.71145,-0.71144 0.71144,0 0.71144,0.71144 v 4.64811 q 1.2142,-1.09089 2.84578,-1.09089 1.76438,0 3.01652,1.25215 1.25214,1.25214 1.25214,3.01652 z" />
        <path
           inkscape:connector-curvature="0"
           id="path5222"
           style="font-style:normal;font-variant:normal;font-weight:normal;font-stretch:normal;font-family:Monofur;-inkscape-font-specification:Monofur;fill:#1a1a1a;stroke-width:0.56915522"
           d="m 138.51924,131.84304 q 0,2.05845 -1.46083,3.51928 -1.46083,1.46083 -3.51928,1.46083 -2.05844,0 -3.51927,-1.46083 -1.46084,-1.46083 -1.46084,-3.51928 0,-2.05844 1.46084,-3.51927 1.46083,-1.46084 3.51927,-1.46084 2.05845,0 3.51928,1.46084 1.46083,1.46083 1.46083,3.51927 z m -1.42289,0 q 0,-1.47032 -1.04345,-2.51377 -1.04345,-1.04345 -2.51377,-1.04345 -1.47032,0 -2.51377,1.04345 -1.04345,1.04345 -1.04345,2.51377 0,1.47032 1.04345,2.51377 1.04345,1.04345 2.51377,1.04345 1.47032,0 2.51377,-1.04345 1.04345,-1.04345 1.04345,-2.51377 z" />
      </g>
    </g>
  </g>
</svg>
