<?xml version="1.0" encoding="UTF-8" standalone="no"?>
<!-- Created with Inkscape (http://www.inkscape.org/) -->

<svg
   xmlns:dc="http://purl.org/dc/elements/1.1/"
   xmlns:cc="http://creativecommons.org/ns#"
   xmlns:rdf="http://www.w3.org/1999/02/22-rdf-syntax-ns#"
   xmlns:svg="http://www.w3.org/2000/svg"
   xmlns="http://www.w3.org/2000/svg"
   xmlns:sodipodi="http://sodipodi.sourceforge.net/DTD/sodipodi-0.dtd"
   xmlns:inkscape="http://www.inkscape.org/namespaces/inkscape"
   width="78.57711mm"
   height="78.577118mm"
   viewBox="0 0 78.57711 78.577118"
   version="1.1"
   id="svg4528"
   inkscape:version="0.92.2 (5c3e80d, 2017-08-06)"
   sodipodi:docname="logo.svg">
  <defs
     id="defs4522" />
  <sodipodi:namedview
     id="base"
     pagecolor="#ffffff"
     bordercolor="#666666"
     borderopacity="1.0"
     inkscape:pageopacity="0.0"
     inkscape:pageshadow="2"
     inkscape:zoom="0.98994949"
     inkscape:cx="186.81341"
     inkscape:cy="60.136694"
     inkscape:document-units="mm"
     inkscape:current-layer="layer1"
     showgrid="false"
     fit-margin-top="0"
     fit-margin-left="0"
     fit-margin-right="0"
     fit-margin-bottom="0"
     inkscape:window-width="1920"
     inkscape:window-height="1017"
     inkscape:window-x="-8"
     inkscape:window-y="-8"
     inkscape:window-maximized="1" />
  <metadata
     id="metadata4525">
    <rdf:RDF>
      <cc:Work
         rdf:about="">
        <dc:format>image/svg+xml</dc:format>
        <dc:type
           rdf:resource="http://purl.org/dc/dcmitype/StillImage" />
        <dc:title></dc:title>
      </cc:Work>
    </rdf:RDF>
  </metadata>
  <g
     inkscape:label="Layer 1"
     inkscape:groupmode="layer"
     id="layer1"
     transform="translate(-66.26711,-35.803076)">
    <g
       id="g5206"
       transform="translate(71.093694,19.510676)">
      <path
         id="path5143"
         d="m 34.461973,16.2924 a 39.288624,39.288624 0 0 0 -0.441317,0.0155 c -0.07399,0.649116 -0.480806,1.345875 -1.225764,2.09083 l -3.683498,3.682979 38.849827,38.849824 3.682978,-3.683495 c 0.742381,-0.742381 1.436913,-1.149199 2.08411,-1.225248 A 39.288624,39.288624 0 0 0 73.750529,55.580959 39.288624,39.288624 0 0 0 34.461971,16.2924 Z"
         style="opacity:1;vector-effect:none;fill:#784421;fill-opacity:1;stroke:none;stroke-width:0.79374999;stroke-linecap:butt;stroke-linejoin:miter;stroke-miterlimit:4;stroke-dasharray:none;stroke-dashoffset:0;stroke-opacity:1"
         inkscape:connector-curvature="0" />
      <path
         id="path5141"
         d="M 27.819484,16.859807 A 39.288624,39.288624 0 0 0 -4.2121506,48.891443 Z"
         style="opacity:1;vector-effect:none;fill:#502d16;fill-opacity:1;stroke:none;stroke-width:0.79374999;stroke-linecap:butt;stroke-linejoin:miter;stroke-miterlimit:4;stroke-dasharray:none;stroke-dashoffset:0;stroke-opacity:1"
         inkscape:connector-curvature="0" />
      <path
         id="path5139"
         d="M 25.815991,25.377634 4.2198926,46.973733 43.0692,85.823555 47.450845,81.441913 c 1.447501,-1.447501 2.713638,-1.628217 3.79925,-0.542604 1.085615,1.085614 0.904899,2.35227 -0.542602,3.799768 l -9.603031,9.603031 A 39.288624,39.288624 0 0 0 73.136097,62.270473 l -9.556522,9.556006 c -1.447501,1.447498 -2.713638,1.628217 -3.79925,0.542602 -1.085614,-1.085614 -0.904899,-2.351751 0.542602,-3.799252 l 4.342371,-4.342368 z"
         style="opacity:1;vector-effect:none;fill:#a05a2c;fill-opacity:1;stroke:none;stroke-width:0.79374999;stroke-linecap:butt;stroke-linejoin:miter;stroke-miterlimit:4;stroke-dasharray:none;stroke-dashoffset:0;stroke-opacity:1"
         inkscape:connector-curvature="0" />
      <path
         id="path5131"
         d="m 0.96272631,50.230381 -3.68297881,3.683497 c -0.7424049,0.742405 -1.4368991,1.149189 -2.0841096,1.225249 a 39.288624,39.288624 0 0 0 -0.022222,0.441833 39.288624,39.288624 0 0 0 39.2885571,39.288558 39.288624,39.288624 0 0 0 0.441317,-0.01551 c 0.07412,-0.649012 0.480933,-1.345478 1.225765,-2.090311 l 3.683497,-3.683495 z"
         style="opacity:1;vector-effect:none;fill:#c87137;fill-opacity:1;stroke:none;stroke-width:0.79374999;stroke-linecap:butt;stroke-linejoin:miter;stroke-miterlimit:4;stroke-dasharray:none;stroke-dashoffset:0;stroke-opacity:1"
         inkscape:connector-curvature="0" />
      <g
         transform="matrix(5.4388888,0,0,5.4388888,-152.97285,-246.71771)"
         id="text5184"
         style="font-style:normal;font-variant:normal;font-weight:normal;font-stretch:normal;font-size:10.58333302px;line-height:1.25;font-family:'Courier New';-inkscape-font-specification:'Courier New';letter-spacing:0px;word-spacing:0px;fill:#28170b;fill-opacity:1;stroke:none;stroke-width:0.26458332"
         aria-label="*">
        <path
           inkscape:connector-curvature="0"
           id="path5186"
           style="fill:#28170b;stroke-width:0.26458332"
           d="m 34.242352,55.456939 v -1.483114 q 0,-0.160197 0.06201,-0.227376 0.06201,-0.06718 0.160197,-0.06718 0.09302,0 0.155029,0.06718 0.06201,0.06718 0.06201,0.227376 v 1.483114 l 1.410766,-0.459921 q 0.09819,-0.03101 0.149862,-0.03101 0.08268,0 0.144694,0.06718 0.06201,0.06201 0.06201,0.149861 0,0.07751 -0.04651,0.134359 -0.04134,0.05684 -0.1757,0.09819 l -1.410767,0.459921 0.873332,1.198893 q 0.08268,0.118856 0.08268,0.186035 0,0.09302 -0.06718,0.160197 -0.06201,0.06201 -0.149862,0.06201 -0.113688,0 -0.222208,-0.149862 l -0.873332,-1.204061 -0.873332,1.204061 q -0.10852,0.149862 -0.217041,0.149862 -0.09302,0 -0.160197,-0.06201 -0.06201,-0.06718 -0.06201,-0.160197 0,-0.06718 0.08785,-0.186035 l 0.873331,-1.198893 -1.415934,-0.465088 q -0.129191,-0.04134 -0.1757,-0.09302 -0.04134,-0.05684 -0.04134,-0.134359 0,-0.08785 0.06201,-0.149861 0.06201,-0.06718 0.139526,-0.06718 0.05684,0 0.15503,0.03101 z" />
      </g>
    </g>
  </g>
</svg>
